<?xml version="1.0" standalone="no"?>
<!DOCTYPE svg PUBLIC "-//W3C//DTD SVG 20010904//EN"
 "http://www.w3.org/TR/2001/REC-SVG-20010904/DTD/svg10.dtd">
<svg version="1.0" xmlns="http://www.w3.org/2000/svg"
 width="700.000000pt" height="700.000000pt" viewBox="0 0 700.000000 700.000000"
 preserveAspectRatio="xMidYMid meet">
<metadata>
Created by potrace 1.11, written by Peter Selinger 2001-2013
</metadata>
<g transform="translate(0.000000,700.000000) scale(0.100000,-0.100000)"
fill="#000000" stroke="none">
<path d="M1710 6992 c0 -5 -30 -24 -67 -43 -37 -19 -92 -59 -123 -89 -56 -56
-73 -86 -130 -240 -18 -47 -41 -110 -53 -140 -29 -77 -85 -189 -115 -227 -13
-18 -42 -43 -63 -55 -44 -25 -44 -29 2 -171 l29 -87 -23 -27 c-44 -52 -123
-126 -159 -149 -21 -13 -38 -31 -38 -38 0 -21 113 -358 149 -443 l30 -73 -32
0 c-18 0 -49 4 -69 9 -43 10 -44 13 17 -74 50 -74 62 -101 120 -290 72 -233
125 -398 136 -423 11 -28 12 -75 1 -68 -10 6 -75 -25 -101 -48 -86 -78 -109
-324 -56 -600 21 -106 115 -294 199 -398 48 -59 105 -163 156 -283 78 -182
139 -219 285 -172 16 5 23 1 31 -21 6 -15 36 -89 68 -165 31 -75 56 -141 56
-146 0 -6 20 -79 44 -163 148 -514 342 -857 579 -1023 33 -23 7 -62 -99 -151
-314 -265 -503 -399 -596 -425 -35 -9 -42 -8 -69 15 -17 15 -34 26 -37 26 -32
0 -190 -34 -200 -43 -15 -12 -19 -13 -107 -22 -77 -9 -112 -13 -155 -19 -52
-8 -99 -14 -155 -21 -27 -3 -61 -8 -75 -10 -14 -3 -40 -7 -59 -10 -199 -33
-368 -83 -492 -145 -137 -69 -333 -233 -430 -360 -50 -64 -109 -157 -109 -169
0 -8 998 -11 3495 -11 1922 0 3495 2 3495 5 0 37 -146 250 -227 332 -69 69
-76 75 -170 138 -116 77 -312 155 -458 185 -33 6 -73 15 -90 20 -16 5 -55 12
-85 15 -30 4 -57 8 -60 10 -3 2 -41 6 -85 10 -44 4 -82 9 -85 10 -3 2 -43 6
-90 10 -47 4 -87 9 -90 10 -3 2 -41 6 -85 10 -44 3 -93 12 -110 20 -27 12 -92
28 -155 39 -14 2 -38 7 -53 11 -22 6 -36 2 -58 -14 -34 -25 -31 -27 -161 60
-80 53 -187 133 -248 185 -14 12 -74 63 -135 114 -60 50 -118 107 -129 126
l-19 35 24 16 c52 34 207 203 261 283 127 191 258 509 348 845 12 44 29 98 39
120 10 22 38 91 62 153 l43 113 41 -7 c69 -12 89 -11 125 3 48 19 77 59 133
183 74 163 89 191 137 255 119 158 188 294 214 420 53 263 38 480 -39 581 -24
32 -57 52 -107 68 -15 4 -15 9 -3 48 7 24 15 59 19 78 3 19 17 100 31 180 38
220 45 350 31 535 -17 220 -87 429 -201 606 l-47 73 -3 180 c-2 148 -6 196
-24 261 -41 152 -134 300 -247 391 -27 21 -55 45 -62 52 -27 25 -210 141 -293
186 l-86 46 -1542 0 c-847 0 -1541 -4 -1541 -8z"/>
</g>
</svg>
